<mxfile host="app.diagrams.net" modified="2022-03-31T07:53:35.304Z" agent="5.0 (Windows NT 10.0; Win64; x64) AppleWebKit/537.36 (KHTML, like Gecko) Chrome/100.0.4896.60 Safari/537.36" etag="HwEv2Z7g1GCHN976RWjk" version="17.3.0" type="github">
  <diagram id="C5RBs43oDa-KdzZeNtuy" name="Page-1">
    <mxGraphModel dx="1718" dy="928" grid="0" gridSize="10" guides="1" tooltips="1" connect="1" arrows="1" fold="1" page="1" pageScale="1" pageWidth="2339" pageHeight="3300" math="0" shadow="0">
      <root>
        <mxCell id="WIyWlLk6GJQsqaUBKTNV-0" />
        <mxCell id="WIyWlLk6GJQsqaUBKTNV-1" parent="WIyWlLk6GJQsqaUBKTNV-0" />
        <mxCell id="zkfFHV4jXpPFQw0GAbJ--0" value="SubJob" style="swimlane;fontStyle=2;align=center;verticalAlign=top;childLayout=stackLayout;horizontal=1;startSize=26;horizontalStack=0;resizeParent=1;resizeLast=0;collapsible=1;marginBottom=0;rounded=0;shadow=0;strokeWidth=1;" parent="WIyWlLk6GJQsqaUBKTNV-1" vertex="1">
          <mxGeometry x="990" y="851.6800000000001" width="160" height="120" as="geometry">
            <mxRectangle x="220" y="120" width="160" height="26" as="alternateBounds" />
          </mxGeometry>
        </mxCell>
        <mxCell id="zkfFHV4jXpPFQw0GAbJ--1" value="index" style="text;align=left;verticalAlign=top;spacingLeft=4;spacingRight=4;overflow=hidden;rotatable=0;points=[[0,0.5],[1,0.5]];portConstraint=eastwest;" parent="zkfFHV4jXpPFQw0GAbJ--0" vertex="1">
          <mxGeometry y="26" width="160" height="26" as="geometry" />
        </mxCell>
        <mxCell id="zkfFHV4jXpPFQw0GAbJ--2" value="arrival_time" style="text;align=left;verticalAlign=top;spacingLeft=4;spacingRight=4;overflow=hidden;rotatable=0;points=[[0,0.5],[1,0.5]];portConstraint=eastwest;rounded=0;shadow=0;html=0;" parent="zkfFHV4jXpPFQw0GAbJ--0" vertex="1">
          <mxGeometry y="52" width="160" height="26" as="geometry" />
        </mxCell>
        <mxCell id="zkfFHV4jXpPFQw0GAbJ--3" value="service_time" style="text;align=left;verticalAlign=top;spacingLeft=4;spacingRight=4;overflow=hidden;rotatable=0;points=[[0,0.5],[1,0.5]];portConstraint=eastwest;rounded=0;shadow=0;html=0;" parent="zkfFHV4jXpPFQw0GAbJ--0" vertex="1">
          <mxGeometry y="78" width="160" height="26" as="geometry" />
        </mxCell>
        <mxCell id="zkfFHV4jXpPFQw0GAbJ--4" value="" style="line;html=1;strokeWidth=1;align=left;verticalAlign=middle;spacingTop=-1;spacingLeft=3;spacingRight=3;rotatable=0;labelPosition=right;points=[];portConstraint=eastwest;" parent="zkfFHV4jXpPFQw0GAbJ--0" vertex="1">
          <mxGeometry y="104" width="160" height="8" as="geometry" />
        </mxCell>
        <mxCell id="zkfFHV4jXpPFQw0GAbJ--6" value="FinishedSubJob" style="swimlane;fontStyle=0;align=center;verticalAlign=top;childLayout=stackLayout;horizontal=1;startSize=26;horizontalStack=0;resizeParent=1;resizeLast=0;collapsible=1;marginBottom=0;rounded=0;shadow=0;strokeWidth=1;" parent="WIyWlLk6GJQsqaUBKTNV-1" vertex="1">
          <mxGeometry x="990" y="1046.68" width="160" height="75" as="geometry">
            <mxRectangle x="130" y="380" width="160" height="26" as="alternateBounds" />
          </mxGeometry>
        </mxCell>
        <mxCell id="zkfFHV4jXpPFQw0GAbJ--7" value="departure_time" style="text;align=left;verticalAlign=top;spacingLeft=4;spacingRight=4;overflow=hidden;rotatable=0;points=[[0,0.5],[1,0.5]];portConstraint=eastwest;" parent="zkfFHV4jXpPFQw0GAbJ--6" vertex="1">
          <mxGeometry y="26" width="160" height="26" as="geometry" />
        </mxCell>
        <mxCell id="zkfFHV4jXpPFQw0GAbJ--9" value="" style="line;html=1;strokeWidth=1;align=left;verticalAlign=middle;spacingTop=-1;spacingLeft=3;spacingRight=3;rotatable=0;labelPosition=right;points=[];portConstraint=eastwest;" parent="zkfFHV4jXpPFQw0GAbJ--6" vertex="1">
          <mxGeometry y="52" width="160" height="8" as="geometry" />
        </mxCell>
        <mxCell id="zkfFHV4jXpPFQw0GAbJ--12" value="" style="endArrow=block;endSize=10;endFill=0;shadow=0;strokeWidth=1;rounded=0;edgeStyle=elbowEdgeStyle;elbow=vertical;" parent="WIyWlLk6GJQsqaUBKTNV-1" source="zkfFHV4jXpPFQw0GAbJ--6" target="zkfFHV4jXpPFQw0GAbJ--0" edge="1">
          <mxGeometry width="160" relative="1" as="geometry">
            <mxPoint x="969" y="903.6800000000001" as="sourcePoint" />
            <mxPoint x="969" y="903.6800000000001" as="targetPoint" />
          </mxGeometry>
        </mxCell>
        <mxCell id="Ek7yVMjdJgGXsthcuW2l-1" value="Workload" style="swimlane;fontStyle=1;align=center;verticalAlign=top;childLayout=stackLayout;horizontal=1;startSize=26;horizontalStack=0;resizeParent=1;resizeParentMax=0;resizeLast=0;collapsible=1;marginBottom=0;" vertex="1" parent="WIyWlLk6GJQsqaUBKTNV-1">
          <mxGeometry x="736" y="658.6800000000001" width="160" height="86" as="geometry" />
        </mxCell>
        <mxCell id="Ek7yVMjdJgGXsthcuW2l-2" value="queue" style="text;strokeColor=none;fillColor=none;align=left;verticalAlign=top;spacingLeft=4;spacingRight=4;overflow=hidden;rotatable=0;points=[[0,0.5],[1,0.5]];portConstraint=eastwest;" vertex="1" parent="Ek7yVMjdJgGXsthcuW2l-1">
          <mxGeometry y="26" width="160" height="26" as="geometry" />
        </mxCell>
        <mxCell id="Ek7yVMjdJgGXsthcuW2l-3" value="" style="line;strokeWidth=1;fillColor=none;align=left;verticalAlign=middle;spacingTop=-1;spacingLeft=3;spacingRight=3;rotatable=0;labelPosition=right;points=[];portConstraint=eastwest;" vertex="1" parent="Ek7yVMjdJgGXsthcuW2l-1">
          <mxGeometry y="52" width="160" height="8" as="geometry" />
        </mxCell>
        <mxCell id="Ek7yVMjdJgGXsthcuW2l-4" value="getWorkLoad()" style="text;strokeColor=none;fillColor=none;align=left;verticalAlign=top;spacingLeft=4;spacingRight=4;overflow=hidden;rotatable=0;points=[[0,0.5],[1,0.5]];portConstraint=eastwest;" vertex="1" parent="Ek7yVMjdJgGXsthcuW2l-1">
          <mxGeometry y="60" width="160" height="26" as="geometry" />
        </mxCell>
        <mxCell id="Ek7yVMjdJgGXsthcuW2l-9" value="Job" style="swimlane;fontStyle=2;align=center;verticalAlign=top;childLayout=stackLayout;horizontal=1;startSize=26;horizontalStack=0;resizeParent=1;resizeLast=0;collapsible=1;marginBottom=0;rounded=0;shadow=0;strokeWidth=1;" vertex="1" parent="WIyWlLk6GJQsqaUBKTNV-1">
          <mxGeometry x="731" y="847.6800000000001" width="160" height="119" as="geometry">
            <mxRectangle x="220" y="120" width="160" height="26" as="alternateBounds" />
          </mxGeometry>
        </mxCell>
        <mxCell id="Ek7yVMjdJgGXsthcuW2l-10" value="index" style="text;align=left;verticalAlign=top;spacingLeft=4;spacingRight=4;overflow=hidden;rotatable=0;points=[[0,0.5],[1,0.5]];portConstraint=eastwest;" vertex="1" parent="Ek7yVMjdJgGXsthcuW2l-9">
          <mxGeometry y="26" width="160" height="26" as="geometry" />
        </mxCell>
        <mxCell id="Ek7yVMjdJgGXsthcuW2l-11" value="arrival_time" style="text;align=left;verticalAlign=top;spacingLeft=4;spacingRight=4;overflow=hidden;rotatable=0;points=[[0,0.5],[1,0.5]];portConstraint=eastwest;rounded=0;shadow=0;html=0;" vertex="1" parent="Ek7yVMjdJgGXsthcuW2l-9">
          <mxGeometry y="52" width="160" height="26" as="geometry" />
        </mxCell>
        <mxCell id="Ek7yVMjdJgGXsthcuW2l-12" value="service_time" style="text;align=left;verticalAlign=top;spacingLeft=4;spacingRight=4;overflow=hidden;rotatable=0;points=[[0,0.5],[1,0.5]];portConstraint=eastwest;rounded=0;shadow=0;html=0;" vertex="1" parent="Ek7yVMjdJgGXsthcuW2l-9">
          <mxGeometry y="78" width="160" height="26" as="geometry" />
        </mxCell>
        <mxCell id="Ek7yVMjdJgGXsthcuW2l-13" value="" style="line;html=1;strokeWidth=1;align=left;verticalAlign=middle;spacingTop=-1;spacingLeft=3;spacingRight=3;rotatable=0;labelPosition=right;points=[];portConstraint=eastwest;" vertex="1" parent="Ek7yVMjdJgGXsthcuW2l-9">
          <mxGeometry y="104" width="160" height="8" as="geometry" />
        </mxCell>
        <mxCell id="Ek7yVMjdJgGXsthcuW2l-15" value="" style="endArrow=open;html=1;endSize=12;startArrow=diamondThin;startSize=14;startFill=1;edgeStyle=orthogonalEdgeStyle;align=left;verticalAlign=bottom;rounded=0;entryX=0.47;entryY=0.98;entryDx=0;entryDy=0;entryPerimeter=0;" edge="1" parent="WIyWlLk6GJQsqaUBKTNV-1" source="Ek7yVMjdJgGXsthcuW2l-9" target="Ek7yVMjdJgGXsthcuW2l-4">
          <mxGeometry x="-1" y="3" relative="1" as="geometry">
            <mxPoint x="595" y="759.6800000000001" as="sourcePoint" />
            <mxPoint x="814" y="766.6800000000001" as="targetPoint" />
          </mxGeometry>
        </mxCell>
        <mxCell id="Ek7yVMjdJgGXsthcuW2l-16" value="Dispatcher" style="swimlane;fontStyle=1;align=center;verticalAlign=top;childLayout=stackLayout;horizontal=1;startSize=26;horizontalStack=0;resizeParent=1;resizeParentMax=0;resizeLast=0;collapsible=1;marginBottom=0;" vertex="1" parent="WIyWlLk6GJQsqaUBKTNV-1">
          <mxGeometry x="990" y="626.6800000000001" width="160" height="168" as="geometry">
            <mxRectangle x="1005" y="364" width="89" height="26" as="alternateBounds" />
          </mxGeometry>
        </mxCell>
        <mxCell id="Ek7yVMjdJgGXsthcuW2l-17" value="threshold&#xa;&#xa;high_priority_queue&#xa;&#xa;low_priority_queue&#xa;" style="text;strokeColor=none;fillColor=none;align=left;verticalAlign=top;spacingLeft=4;spacingRight=4;overflow=hidden;rotatable=0;points=[[0,0.5],[1,0.5]];portConstraint=eastwest;" vertex="1" parent="Ek7yVMjdJgGXsthcuW2l-16">
          <mxGeometry y="26" width="160" height="83" as="geometry" />
        </mxCell>
        <mxCell id="Ek7yVMjdJgGXsthcuW2l-18" value="" style="line;strokeWidth=1;fillColor=none;align=left;verticalAlign=middle;spacingTop=-1;spacingLeft=3;spacingRight=3;rotatable=0;labelPosition=right;points=[];portConstraint=eastwest;" vertex="1" parent="Ek7yVMjdJgGXsthcuW2l-16">
          <mxGeometry y="109" width="160" height="8" as="geometry" />
        </mxCell>
        <mxCell id="Ek7yVMjdJgGXsthcuW2l-19" value="splitJobToSubJobs()&#xa;&#xa;getSubJob()" style="text;strokeColor=none;fillColor=none;align=left;verticalAlign=top;spacingLeft=4;spacingRight=4;overflow=hidden;rotatable=0;points=[[0,0.5],[1,0.5]];portConstraint=eastwest;" vertex="1" parent="Ek7yVMjdJgGXsthcuW2l-16">
          <mxGeometry y="117" width="160" height="51" as="geometry" />
        </mxCell>
        <mxCell id="Ek7yVMjdJgGXsthcuW2l-33" value="Servers" style="swimlane;fontStyle=1;align=center;verticalAlign=top;childLayout=stackLayout;horizontal=1;startSize=26;horizontalStack=0;resizeParent=1;resizeParentMax=0;resizeLast=0;collapsible=1;marginBottom=0;" vertex="1" parent="WIyWlLk6GJQsqaUBKTNV-1">
          <mxGeometry x="1237" y="626.6800000000001" width="160" height="141" as="geometry">
            <mxRectangle x="1005" y="364" width="89" height="26" as="alternateBounds" />
          </mxGeometry>
        </mxCell>
        <mxCell id="Ek7yVMjdJgGXsthcuW2l-34" value="servers&#xa;&#xa;finish&#xa;" style="text;strokeColor=none;fillColor=none;align=left;verticalAlign=top;spacingLeft=4;spacingRight=4;overflow=hidden;rotatable=0;points=[[0,0.5],[1,0.5]];portConstraint=eastwest;" vertex="1" parent="Ek7yVMjdJgGXsthcuW2l-33">
          <mxGeometry y="26" width="160" height="56" as="geometry" />
        </mxCell>
        <mxCell id="Ek7yVMjdJgGXsthcuW2l-35" value="" style="line;strokeWidth=1;fillColor=none;align=left;verticalAlign=middle;spacingTop=-1;spacingLeft=3;spacingRight=3;rotatable=0;labelPosition=right;points=[];portConstraint=eastwest;" vertex="1" parent="Ek7yVMjdJgGXsthcuW2l-33">
          <mxGeometry y="82" width="160" height="8" as="geometry" />
        </mxCell>
        <mxCell id="Ek7yVMjdJgGXsthcuW2l-36" value="updateServersBeforeT()&#xa;&#xa;recive_subjob()" style="text;strokeColor=none;fillColor=none;align=left;verticalAlign=top;spacingLeft=4;spacingRight=4;overflow=hidden;rotatable=0;points=[[0,0.5],[1,0.5]];portConstraint=eastwest;" vertex="1" parent="Ek7yVMjdJgGXsthcuW2l-33">
          <mxGeometry y="90" width="160" height="51" as="geometry" />
        </mxCell>
        <mxCell id="Ek7yVMjdJgGXsthcuW2l-37" value="" style="endArrow=open;html=1;endSize=12;startArrow=diamondThin;startSize=14;startFill=1;edgeStyle=orthogonalEdgeStyle;align=left;verticalAlign=bottom;rounded=0;exitX=0.539;exitY=0.002;exitDx=0;exitDy=0;exitPerimeter=0;entryX=0.474;entryY=1.007;entryDx=0;entryDy=0;entryPerimeter=0;" edge="1" parent="WIyWlLk6GJQsqaUBKTNV-1" source="Ek7yVMjdJgGXsthcuW2l-39" target="Ek7yVMjdJgGXsthcuW2l-36">
          <mxGeometry x="-1" y="3" relative="1" as="geometry">
            <mxPoint x="1359" y="894.6800000000001" as="sourcePoint" />
            <mxPoint x="1312" y="817.6800000000001" as="targetPoint" />
            <Array as="points">
              <mxPoint x="1359" y="856.6800000000001" />
              <mxPoint x="1313" y="856.6800000000001" />
            </Array>
          </mxGeometry>
        </mxCell>
        <mxCell id="Ek7yVMjdJgGXsthcuW2l-38" value="" style="endArrow=open;html=1;endSize=12;startArrow=diamondThin;startSize=14;startFill=1;edgeStyle=orthogonalEdgeStyle;align=left;verticalAlign=bottom;rounded=0;exitX=0.5;exitY=0;exitDx=0;exitDy=0;entryX=0.495;entryY=1.046;entryDx=0;entryDy=0;entryPerimeter=0;" edge="1" parent="WIyWlLk6GJQsqaUBKTNV-1" source="zkfFHV4jXpPFQw0GAbJ--0" target="Ek7yVMjdJgGXsthcuW2l-19">
          <mxGeometry x="-1" y="3" relative="1" as="geometry">
            <mxPoint x="1213" y="879.6800000000001" as="sourcePoint" />
            <mxPoint x="1166" y="802.6800000000001" as="targetPoint" />
            <Array as="points">
              <mxPoint x="1069" y="843.6800000000001" />
              <mxPoint x="1069" y="843.6800000000001" />
            </Array>
          </mxGeometry>
        </mxCell>
        <mxCell id="Ek7yVMjdJgGXsthcuW2l-39" value="Server" style="swimlane;fontStyle=1;align=center;verticalAlign=top;childLayout=stackLayout;horizontal=1;startSize=26;horizontalStack=0;resizeParent=1;resizeParentMax=0;resizeLast=0;collapsible=1;marginBottom=0;" vertex="1" parent="WIyWlLk6GJQsqaUBKTNV-1">
          <mxGeometry x="1273" y="905.6800000000001" width="160" height="192" as="geometry">
            <mxRectangle x="1005" y="364" width="89" height="26" as="alternateBounds" />
          </mxGeometry>
        </mxCell>
        <mxCell id="Ek7yVMjdJgGXsthcuW2l-40" value="state&#xa;&#xa;departure_time&#xa;&#xa;arrival_time&#xa;&#xa;sub_job&#xa;" style="text;strokeColor=none;fillColor=none;align=left;verticalAlign=top;spacingLeft=4;spacingRight=4;overflow=hidden;rotatable=0;points=[[0,0.5],[1,0.5]];portConstraint=eastwest;" vertex="1" parent="Ek7yVMjdJgGXsthcuW2l-39">
          <mxGeometry y="26" width="160" height="107" as="geometry" />
        </mxCell>
        <mxCell id="Ek7yVMjdJgGXsthcuW2l-41" value="" style="line;strokeWidth=1;fillColor=none;align=left;verticalAlign=middle;spacingTop=-1;spacingLeft=3;spacingRight=3;rotatable=0;labelPosition=right;points=[];portConstraint=eastwest;" vertex="1" parent="Ek7yVMjdJgGXsthcuW2l-39">
          <mxGeometry y="133" width="160" height="8" as="geometry" />
        </mxCell>
        <mxCell id="Ek7yVMjdJgGXsthcuW2l-42" value="reset()&#xa;&#xa;set()" style="text;strokeColor=none;fillColor=none;align=left;verticalAlign=top;spacingLeft=4;spacingRight=4;overflow=hidden;rotatable=0;points=[[0,0.5],[1,0.5]];portConstraint=eastwest;" vertex="1" parent="Ek7yVMjdJgGXsthcuW2l-39">
          <mxGeometry y="141" width="160" height="51" as="geometry" />
        </mxCell>
        <mxCell id="Ek7yVMjdJgGXsthcuW2l-43" value="" style="endArrow=open;html=1;endSize=12;startArrow=diamondThin;startSize=14;startFill=1;edgeStyle=orthogonalEdgeStyle;align=left;verticalAlign=bottom;rounded=0;" edge="1" parent="WIyWlLk6GJQsqaUBKTNV-1" source="Ek7yVMjdJgGXsthcuW2l-1" target="Ek7yVMjdJgGXsthcuW2l-49">
          <mxGeometry x="-1" y="3" relative="1" as="geometry">
            <mxPoint x="846.9955172413795" y="571.2" as="sourcePoint" />
            <mxPoint x="1058.1599999999999" y="444.00399999999996" as="targetPoint" />
            <Array as="points">
              <mxPoint x="816" y="584" />
              <mxPoint x="1058" y="584" />
            </Array>
          </mxGeometry>
        </mxCell>
        <mxCell id="Ek7yVMjdJgGXsthcuW2l-44" value="" style="endArrow=open;html=1;endSize=12;startArrow=diamondThin;startSize=14;startFill=1;edgeStyle=orthogonalEdgeStyle;align=left;verticalAlign=bottom;rounded=0;" edge="1" parent="WIyWlLk6GJQsqaUBKTNV-1" source="Ek7yVMjdJgGXsthcuW2l-16">
          <mxGeometry x="-1" y="3" relative="1" as="geometry">
            <mxPoint x="934" y="624.6800000000001" as="sourcePoint" />
            <mxPoint x="1059" y="540.6800000000001" as="targetPoint" />
            <Array as="points">
              <mxPoint x="1059" y="600.6800000000001" />
              <mxPoint x="1059" y="600.6800000000001" />
            </Array>
          </mxGeometry>
        </mxCell>
        <mxCell id="Ek7yVMjdJgGXsthcuW2l-45" value="" style="endArrow=open;html=1;endSize=12;startArrow=diamondThin;startSize=14;startFill=1;edgeStyle=orthogonalEdgeStyle;align=left;verticalAlign=bottom;rounded=0;entryX=0.451;entryY=0.974;entryDx=0;entryDy=0;entryPerimeter=0;exitX=0.5;exitY=0;exitDx=0;exitDy=0;" edge="1" parent="WIyWlLk6GJQsqaUBKTNV-1" source="Ek7yVMjdJgGXsthcuW2l-33">
          <mxGeometry x="-1" y="3" relative="1" as="geometry">
            <mxPoint x="816" y="658.6800000000001" as="sourcePoint" />
            <mxPoint x="1058.1599999999999" y="540.0040000000001" as="targetPoint" />
          </mxGeometry>
        </mxCell>
        <mxCell id="Ek7yVMjdJgGXsthcuW2l-46" value="System" style="swimlane;fontStyle=1;align=center;verticalAlign=top;childLayout=stackLayout;horizontal=1;startSize=26;horizontalStack=0;resizeParent=1;resizeParentMax=0;resizeLast=0;collapsible=1;marginBottom=0;" vertex="1" parent="WIyWlLk6GJQsqaUBKTNV-1">
          <mxGeometry x="995" y="319" width="160" height="221" as="geometry">
            <mxRectangle x="1005" y="364" width="89" height="26" as="alternateBounds" />
          </mxGeometry>
        </mxCell>
        <mxCell id="Ek7yVMjdJgGXsthcuW2l-47" value="workload&#xa;&#xa;dispatcher&#xa;&#xa;servers&#xa;&#xa;mode&#xa;" style="text;strokeColor=none;fillColor=none;align=left;verticalAlign=top;spacingLeft=4;spacingRight=4;overflow=hidden;rotatable=0;points=[[0,0.5],[1,0.5]];portConstraint=eastwest;" vertex="1" parent="Ek7yVMjdJgGXsthcuW2l-46">
          <mxGeometry y="26" width="160" height="107" as="geometry" />
        </mxCell>
        <mxCell id="Ek7yVMjdJgGXsthcuW2l-48" value="" style="line;strokeWidth=1;fillColor=none;align=left;verticalAlign=middle;spacingTop=-1;spacingLeft=3;spacingRight=3;rotatable=0;labelPosition=right;points=[];portConstraint=eastwest;" vertex="1" parent="Ek7yVMjdJgGXsthcuW2l-46">
          <mxGeometry y="133" width="160" height="8" as="geometry" />
        </mxCell>
        <mxCell id="Ek7yVMjdJgGXsthcuW2l-49" value="run()&#xa;&#xa;getMeanResponseTime()&#xa;&#xa;getResult()" style="text;strokeColor=none;fillColor=none;align=left;verticalAlign=top;spacingLeft=4;spacingRight=4;overflow=hidden;rotatable=0;points=[[0,0.5],[1,0.5]];portConstraint=eastwest;" vertex="1" parent="Ek7yVMjdJgGXsthcuW2l-46">
          <mxGeometry y="141" width="160" height="80" as="geometry" />
        </mxCell>
      </root>
    </mxGraphModel>
  </diagram>
</mxfile>
